<svg xmlns="http://www.w3.org/2000/svg" viewBox="0 0 41 41" shape-rendering="crispEdges" width="492" height="492">
<rect x="0" y="0" width="41" height="41" fill="#ffffff"/>
<path fill="#111111" d="M4 4h7v1h-7zM12 4h1v1h-1zM15 4h3v1h-3zM20 4h1v1h-1zM22 4h3v1h-3zM26 4h2v1h-2zM30 4h7v1h-7zM4 5h1v1h-1zM10 5h1v1h-1zM13 5h1v1h-1zM16 5h1v1h-1zM19 5h2v1h-2zM22 5h1v1h-1zM24 5h1v1h-1zM30 5h1v1h-1zM36 5h1v1h-1zM4 6h1v1h-1zM6 6h3v1h-3zM10 6h1v1h-1zM14 6h1v1h-1zM17 6h4v1h-4zM23 6h4v1h-4zM28 6h1v1h-1zM30 6h1v1h-1zM32 6h3v1h-3zM36 6h1v1h-1zM4 7h1v1h-1zM6 7h3v1h-3zM10 7h1v1h-1zM13 7h3v1h-3zM18 7h1v1h-1zM20 7h1v1h-1zM22 7h2v1h-2zM25 7h4v1h-4zM30 7h1v1h-1zM32 7h3v1h-3zM36 7h1v1h-1zM4 8h1v1h-1zM6 8h3v1h-3zM10 8h1v1h-1zM12 8h6v1h-6zM24 8h1v1h-1zM30 8h1v1h-1zM32 8h3v1h-3zM36 8h1v1h-1zM4 9h1v1h-1zM10 9h1v1h-1zM12 9h5v1h-5zM18 9h4v1h-4zM23 9h1v1h-1zM25 9h1v1h-1zM28 9h1v1h-1zM30 9h1v1h-1zM36 9h1v1h-1zM4 10h7v1h-7zM12 10h1v1h-1zM14 10h1v1h-1zM16 10h1v1h-1zM18 10h1v1h-1zM20 10h1v1h-1zM22 10h1v1h-1zM24 10h1v1h-1zM26 10h1v1h-1zM28 10h1v1h-1zM30 10h7v1h-7zM14 11h3v1h-3zM19 11h1v1h-1zM23 11h3v1h-3zM5 12h7v1h-7zM13 12h1v1h-1zM15 12h1v1h-1zM17 12h2v1h-2zM20 12h4v1h-4zM26 12h1v1h-1zM28 12h1v1h-1zM31 12h2v1h-2zM36 12h1v1h-1zM5 13h1v1h-1zM9 13h1v1h-1zM12 13h1v1h-1zM14 13h1v1h-1zM17 13h2v1h-2zM20 13h4v1h-4zM25 13h1v1h-1zM27 13h1v1h-1zM30 13h2v1h-2zM33 13h3v1h-3zM4 14h1v1h-1zM7 14h1v1h-1zM9 14h4v1h-4zM14 14h2v1h-2zM20 14h2v1h-2zM24 14h1v1h-1zM26 14h1v1h-1zM29 14h2v1h-2zM32 14h1v1h-1zM34 14h2v1h-2zM8 15h1v1h-1zM12 15h4v1h-4zM17 15h2v1h-2zM20 15h3v1h-3zM24 15h3v1h-3zM29 15h2v1h-2zM32 15h3v1h-3zM36 15h1v1h-1zM4 16h1v1h-1zM7 16h2v1h-2zM10 16h1v1h-1zM12 16h4v1h-4zM17 16h2v1h-2zM23 16h2v1h-2zM26 16h1v1h-1zM28 16h2v1h-2zM31 16h3v1h-3zM4 17h1v1h-1zM6 17h1v1h-1zM8 17h1v1h-1zM11 17h3v1h-3zM18 17h1v1h-1zM20 17h1v1h-1zM22 17h1v1h-1zM27 17h1v1h-1zM34 17h3v1h-3zM8 18h1v1h-1zM10 18h2v1h-2zM15 18h1v1h-1zM17 18h2v1h-2zM24 18h2v1h-2zM29 18h2v1h-2zM32 18h4v1h-4zM7 19h3v1h-3zM11 19h3v1h-3zM15 19h1v1h-1zM18 19h1v1h-1zM20 19h2v1h-2zM25 19h7v1h-7zM33 19h2v1h-2zM4 20h1v1h-1zM7 20h7v1h-7zM26 20h1v1h-1zM28 20h2v1h-2zM31 20h4v1h-4zM36 20h1v1h-1zM6 21h1v1h-1zM8 21h2v1h-2zM14 21h1v1h-1zM16 21h10v1h-10zM27 21h1v1h-1zM30 21h2v1h-2zM33 21h4v1h-4zM5 22h1v1h-1zM8 22h1v1h-1zM10 22h2v1h-2zM16 22h4v1h-4zM22 22h1v1h-1zM24 22h2v1h-2zM30 22h3v1h-3zM34 22h2v1h-2zM4 23h6v1h-6zM12 23h2v1h-2zM15 23h1v1h-1zM17 23h3v1h-3zM23 23h5v1h-5zM31 23h6v1h-6zM6 24h1v1h-1zM10 24h1v1h-1zM12 24h1v1h-1zM17 24h2v1h-2zM20 24h1v1h-1zM23 24h1v1h-1zM25 24h1v1h-1zM29 24h1v1h-1zM31 24h1v1h-1zM33 24h1v1h-1zM35 24h1v1h-1zM4 25h2v1h-2zM9 25h1v1h-1zM11 25h2v1h-2zM14 25h1v1h-1zM17 25h3v1h-3zM24 25h1v1h-1zM27 25h1v1h-1zM30 25h1v1h-1zM33 25h2v1h-2zM36 25h1v1h-1zM4 26h1v1h-1zM6 26h3v1h-3zM10 26h7v1h-7zM18 26h1v1h-1zM21 26h3v1h-3zM26 26h1v1h-1zM28 26h1v1h-1zM31 26h1v1h-1zM33 26h3v1h-3zM4 27h1v1h-1zM6 27h1v1h-1zM9 27h1v1h-1zM11 27h2v1h-2zM14 27h1v1h-1zM18 27h3v1h-3zM22 27h4v1h-4zM29 27h2v1h-2zM32 27h5v1h-5zM4 28h1v1h-1zM6 28h5v1h-5zM12 28h2v1h-2zM15 28h1v1h-1zM17 28h4v1h-4zM22 28h2v1h-2zM27 28h6v1h-6zM34 28h2v1h-2zM12 29h2v1h-2zM16 29h1v1h-1zM18 29h1v1h-1zM20 29h1v1h-1zM23 29h2v1h-2zM27 29h2v1h-2zM32 29h1v1h-1zM34 29h1v1h-1zM36 29h1v1h-1zM4 30h7v1h-7zM12 30h1v1h-1zM15 30h1v1h-1zM17 30h2v1h-2zM21 30h1v1h-1zM24 30h1v1h-1zM26 30h3v1h-3zM30 30h1v1h-1zM32 30h1v1h-1zM34 30h2v1h-2zM4 31h1v1h-1zM10 31h1v1h-1zM12 31h1v1h-1zM14 31h1v1h-1zM16 31h1v1h-1zM19 31h5v1h-5zM27 31h2v1h-2zM32 31h5v1h-5zM4 32h1v1h-1zM6 32h3v1h-3zM10 32h1v1h-1zM12 32h1v1h-1zM15 32h4v1h-4zM20 32h3v1h-3zM24 32h3v1h-3zM28 32h6v1h-6zM35 32h2v1h-2zM4 33h1v1h-1zM6 33h3v1h-3zM10 33h1v1h-1zM12 33h1v1h-1zM14 33h2v1h-2zM18 33h3v1h-3zM32 33h1v1h-1zM34 33h1v1h-1zM36 33h1v1h-1zM4 34h1v1h-1zM6 34h3v1h-3zM10 34h1v1h-1zM12 34h1v1h-1zM14 34h1v1h-1zM17 34h2v1h-2zM22 34h1v1h-1zM24 34h1v1h-1zM26 34h2v1h-2zM30 34h2v1h-2zM33 34h2v1h-2zM4 35h1v1h-1zM10 35h1v1h-1zM12 35h2v1h-2zM16 35h2v1h-2zM20 35h1v1h-1zM25 35h1v1h-1zM30 35h1v1h-1zM32 35h3v1h-3zM4 36h7v1h-7zM13 36h5v1h-5zM19 36h2v1h-2zM22 36h1v1h-1zM26 36h3v1h-3zM30 36h2v1h-2zM35 36h1v1h-1z"/>
</svg>
